<mxfile host="app.diagrams.net" agent="Mozilla/5.0 (Windows NT 10.0; Win64; x64) AppleWebKit/537.36 (KHTML, like Gecko) Chrome/130.0.0.0 Safari/537.36" version="24.7.17">
  <diagram name="Pagina-1" id="02GKMPbsoLxoZ-Zhze37">
    <mxGraphModel dx="1195" dy="535" grid="1" gridSize="10" guides="1" tooltips="1" connect="1" arrows="1" fold="1" page="1" pageScale="1" pageWidth="827" pageHeight="1169" math="0" shadow="0">
      <root>
        <mxCell id="0" />
        <mxCell id="1" parent="0" />
        <mxCell id="x6eUfGFzxHGIitKMDGkb-103" value="&amp;lt;&amp;lt;component&amp;gt;&amp;gt;&lt;div&gt;Utente&lt;/div&gt;" style="rounded=0;whiteSpace=wrap;html=1;" vertex="1" parent="1">
          <mxGeometry x="420" y="400" width="120" height="60" as="geometry" />
        </mxCell>
        <mxCell id="x6eUfGFzxHGIitKMDGkb-104" value="&amp;lt;&amp;lt;component&amp;gt;&amp;gt;&lt;div&gt;Login&lt;/div&gt;" style="rounded=0;whiteSpace=wrap;html=1;" vertex="1" parent="1">
          <mxGeometry x="930" y="570" width="120" height="60" as="geometry" />
        </mxCell>
        <mxCell id="x6eUfGFzxHGIitKMDGkb-105" value="&amp;lt;&amp;lt;component&amp;gt;&amp;gt;&lt;div&gt;Register/Login&lt;/div&gt;" style="rounded=0;whiteSpace=wrap;html=1;" vertex="1" parent="1">
          <mxGeometry x="420" y="570" width="120" height="60" as="geometry" />
        </mxCell>
        <mxCell id="x6eUfGFzxHGIitKMDGkb-106" value="&amp;lt;&amp;lt;component&amp;gt;&amp;gt;&lt;div&gt;Catalogo&lt;/div&gt;" style="rounded=0;whiteSpace=wrap;html=1;" vertex="1" parent="1">
          <mxGeometry x="690" y="400" width="120" height="60" as="geometry" />
        </mxCell>
        <mxCell id="x6eUfGFzxHGIitKMDGkb-107" value="&amp;lt;&amp;lt;component&amp;gt;&amp;gt;&lt;div&gt;Admin&lt;/div&gt;" style="rounded=0;whiteSpace=wrap;html=1;" vertex="1" parent="1">
          <mxGeometry x="930" y="400" width="120" height="60" as="geometry" />
        </mxCell>
        <mxCell id="x6eUfGFzxHGIitKMDGkb-108" value="Use" style="endArrow=open;endSize=12;dashed=1;html=1;rounded=0;exitX=0.5;exitY=1;exitDx=0;exitDy=0;entryX=0.5;entryY=0;entryDx=0;entryDy=0;" edge="1" parent="1" source="x6eUfGFzxHGIitKMDGkb-103" target="x6eUfGFzxHGIitKMDGkb-105">
          <mxGeometry width="160" relative="1" as="geometry">
            <mxPoint x="650" y="540" as="sourcePoint" />
            <mxPoint x="810" y="540" as="targetPoint" />
          </mxGeometry>
        </mxCell>
        <mxCell id="x6eUfGFzxHGIitKMDGkb-109" value="Use" style="endArrow=open;endSize=12;dashed=1;html=1;rounded=0;exitX=0.5;exitY=1;exitDx=0;exitDy=0;entryX=0.5;entryY=0;entryDx=0;entryDy=0;" edge="1" parent="1">
          <mxGeometry width="160" relative="1" as="geometry">
            <mxPoint x="990" y="460" as="sourcePoint" />
            <mxPoint x="990" y="570" as="targetPoint" />
          </mxGeometry>
        </mxCell>
        <mxCell id="x6eUfGFzxHGIitKMDGkb-110" value="" style="rounded=0;orthogonalLoop=1;jettySize=auto;html=1;endArrow=halfCircle;endFill=0;endSize=6;strokeWidth=1;sketch=0;exitX=1;exitY=0.5;exitDx=0;exitDy=0;" edge="1" parent="1" source="x6eUfGFzxHGIitKMDGkb-103">
          <mxGeometry relative="1" as="geometry">
            <mxPoint x="750" y="535" as="sourcePoint" />
            <mxPoint x="610" y="430" as="targetPoint" />
          </mxGeometry>
        </mxCell>
        <mxCell id="x6eUfGFzxHGIitKMDGkb-111" value="" style="rounded=0;orthogonalLoop=1;jettySize=auto;html=1;endArrow=oval;endFill=0;sketch=0;sourcePerimeterSpacing=0;targetPerimeterSpacing=0;endSize=10;exitX=0;exitY=0.5;exitDx=0;exitDy=0;" edge="1" parent="1" source="x6eUfGFzxHGIitKMDGkb-106">
          <mxGeometry relative="1" as="geometry">
            <mxPoint x="710" y="535" as="sourcePoint" />
            <mxPoint x="620" y="430" as="targetPoint" />
          </mxGeometry>
        </mxCell>
        <mxCell id="x6eUfGFzxHGIitKMDGkb-112" value="" style="ellipse;whiteSpace=wrap;html=1;align=center;aspect=fixed;fillColor=none;strokeColor=none;resizable=0;perimeter=centerPerimeter;rotatable=0;allowArrows=0;points=[];outlineConnect=1;" vertex="1" parent="1">
          <mxGeometry x="725" y="530" width="10" height="10" as="geometry" />
        </mxCell>
        <mxCell id="x6eUfGFzxHGIitKMDGkb-113" value="" style="rounded=0;orthogonalLoop=1;jettySize=auto;html=1;endArrow=halfCircle;endFill=0;endSize=6;strokeWidth=1;sketch=0;exitX=1;exitY=0.5;exitDx=0;exitDy=0;" edge="1" parent="1">
          <mxGeometry relative="1" as="geometry">
            <mxPoint x="810" y="429.5" as="sourcePoint" />
            <mxPoint x="880" y="429.5" as="targetPoint" />
          </mxGeometry>
        </mxCell>
        <mxCell id="x6eUfGFzxHGIitKMDGkb-114" value="" style="rounded=0;orthogonalLoop=1;jettySize=auto;html=1;endArrow=oval;endFill=0;sketch=0;sourcePerimeterSpacing=0;targetPerimeterSpacing=0;endSize=10;" edge="1" parent="1">
          <mxGeometry relative="1" as="geometry">
            <mxPoint x="930" y="430" as="sourcePoint" />
            <mxPoint x="890" y="429.5" as="targetPoint" />
          </mxGeometry>
        </mxCell>
        <mxCell id="x6eUfGFzxHGIitKMDGkb-115" value="Libri" style="text;html=1;align=center;verticalAlign=middle;resizable=0;points=[];autosize=1;strokeColor=none;fillColor=none;" vertex="1" parent="1">
          <mxGeometry x="590" y="430" width="50" height="30" as="geometry" />
        </mxCell>
        <mxCell id="x6eUfGFzxHGIitKMDGkb-116" value="Libri" style="text;html=1;align=center;verticalAlign=middle;resizable=0;points=[];autosize=1;strokeColor=none;fillColor=none;" vertex="1" parent="1">
          <mxGeometry x="860" y="430" width="50" height="30" as="geometry" />
        </mxCell>
      </root>
    </mxGraphModel>
  </diagram>
</mxfile>
